<svg xmlns="http://www.w3.org/2000/svg" width="24" height="24" viewBox="0 0 24 24" fill="#FAFAFA">
  <path d="M4.459 4.208c.746.606 1.026.56 2.428.466l13.215-.793c.28 0 .047-.28-.046-.326L18.12 2.15c-.42-.326-.98-.7-2.055-.607L3.01 2.71c-.467.047-.56.28-.374.466l1.823 1.032zm.793 3.313v13.831c0 .747.373 1.027 1.214.98l14.523-.84c.841-.046.934-.56.934-1.166V6.535c0-.606-.233-.933-.747-.886l-15.177.887c-.56.046-.747.326-.747.886zm14.337.746c.093.42 0 .84-.42.888l-.7.14v10.264c-.608.327-1.168.514-1.635.514-.747 0-.934-.233-1.494-.933l-4.577-7.186v6.952l1.448.327s0 .84-1.168.84l-3.222.186c-.093-.186 0-.653.327-.747l.84-.233V9.854L7.822 9.76c-.094-.42.14-1.026.793-1.073l3.456-.233 4.764 7.279v-6.44l-1.215-.14c-.093-.513.28-.886.747-.933l3.222-.186zM2.877 1.37l13.728-.933c1.682-.14 2.101.093 2.801.606l3.876 2.706c.467.326.607.747.607 1.306V20.39c0 .98-.374 1.54-1.682 1.634l-15.458.933c-.98.047-1.447-.093-1.96-.747L1.53 18.663c-.56-.746-.793-1.306-.793-1.96V2.95c0-.793.374-1.446 1.447-1.54l.694-.04z"/>
</svg>
